Coordinates
version=1
nRows=5
nColumns=40
inDegrees=yes

Units are S.I. units (second, meters, Newtons, ...)
If the header above contains a line with 'inDegrees', this indicates whether rotational values are in degrees (yes) or radians (no).

endheader
time	pelvis_tilt	pelvis_list	pelvis_rotation	pelvis_tx	pelvis_ty	pelvis_tz	hip_flexion_r	hip_adduction_r	hip_rotation_r	knee_angle_r	knee_angle_r_beta	ankle_angle_r	subtalar_angle_r	mtp_angle_r	hip_flexion_l	hip_adduction_l	hip_rotation_l	knee_angle_l	knee_angle_l_beta	ankle_angle_l	subtalar_angle_l	mtp_angle_l	lumbar_extension	lumbar_bending	lumbar_rotation	arm_flex_r	arm_add_r	arm_rot_r	elbow_flex_r	pro_sup_r	wrist_flex_r	wrist_dev_r	arm_flex_l	arm_add_l	arm_rot_l	elbow_flex_l	pro_sup_l	wrist_flex_l	wrist_dev_l
     11.78300000	     24.85314544	      0.33334104	      8.40429512	      0.02672912	      1.33708188	     -0.00772716	     42.37209922	    -10.40345499	    -10.99188370	     98.72413706	      1.72306124	     -6.98331359	    -24.76965120	      0.00000000	      5.66276425	     -6.01492980	     -0.75129984	     36.74519516	      0.64132464	    -36.74673399	    -28.65044262	      0.00000000	    -77.70145496	      5.46446292	     12.10861511	     33.64721393	    -12.98947603	    -36.62165476	     53.62895059	     40.21794338	      0.00000000	      0.00000000	     54.12070307	     17.40170968	    -19.78189625	     38.38874285	     40.10936609	      0.00000000	      0.00000000
     11.80000000	     25.09474110	      0.15047814	      8.46444807	      0.02619511	      1.33733270	     -0.00810021	     43.95687639	    -10.20768218	    -10.19451323	     97.95698212	      1.70967186	     -5.75352387	    -25.34078402	      0.00000000	      4.72250035	     -6.35953322	     -0.27218373	     38.77841787	      0.67681107	    -36.86128486	    -29.12296017	      0.00000000	    -77.75778995	      5.69020903	     12.21277453	     33.57427959	    -12.51321022	    -36.83977796	     53.78938860	     40.17745021	      0.00000000	      0.00000000	     53.99651701	     17.15694058	    -19.67342798	     38.35160902	     40.10901602	      0.00000000	      0.00000000
     11.81700000	     25.26890169	      0.03151081	      8.62043736	      0.02572110	      1.33767895	     -0.00840400	     44.63054761	     -9.93339794	     -9.52244916	     95.61814979	      1.66885154	     -4.72003064	    -25.46256645	      0.00000000	      4.80067404	     -6.44155964	      0.69334289	     42.31717334	      0.73857400	    -37.07444143	    -30.59853007	      0.00000000	    -77.88848923	      5.91511885	     12.26870832	     33.40344604	    -12.02439251	    -37.08331635	     54.21116212	     40.12812436	      0.00000000	      0.00000000	     53.92401685	     16.87943224	    -19.37004039	     38.41763645	     40.09712687	      0.00000000	      0.00000000
     11.83300000	     25.44086372	      0.07608665	      8.81396309	      0.02519698	      1.33817431	     -0.00882342	     44.45208393	     -9.70108989	     -8.83873252	     91.95252673	      1.60487435	     -4.38975895	    -25.31064672	      0.00000000	      5.63181608	     -6.18944780	      2.00316277	     47.15669450	      0.82303958	    -37.08432369	    -32.16182535	      0.00000000	    -78.09501130	      6.09127975	     12.18287144	     33.17010028	    -11.68061372	    -37.11001290	     54.69776470	     40.08349006	      0.00000000	      0.00000000	     53.83976807	     16.61463302	    -18.92028972	     38.59717500	     40.01879491	      0.00000000	      0.00000000
     11.85000000	     25.43072077	      0.16811203	      9.22370710	      0.02464620	      1.33843601	     -0.00932561	     43.50807772	     -9.61244204	     -8.63799074	     87.45435199	      1.52636639	     -4.67739622	    -25.67723875	      0.00000000	      7.23481716	     -5.76184711	      3.61563956	     52.64386338	      0.91880875	    -36.82144790	    -32.93737978	      0.00000000	    -78.07916818	      6.44117372	     11.96295879	     32.99201775	    -11.56432555	    -36.94372648	     54.96517056	     39.93688205	      0.00000000	      0.00000000	     53.76949048	     16.29509845	    -18.29225985	     38.70958984	     39.61412154	      0.00000000	      0.00000000
